# xmcd CD database file
#
# Track frame offsets:
#	150
#	41583
#	65290
#	94806
#	129647
#	168575
#	190473
#	210056
#	234227
#
# Disc length: 3346 seconds
#
# Revision: 0
# Processed by: cddbd v1.5.1PL0 Copyright (c) Steve Scherf et al.
# Submitted via: CDex 1.50
#
DISCID=730d1009
DTITLE=Don Cherry - Bobo Stenson - Lennart Åberg - Anders Jormin - Anders Kjellberg - Okay Temiz - Dona Nostra
DYEAR=1994
DGENRE=Jazz
TTITLE0=In Memoriam
TTITLE1=Fort Cherry
TTITLE2=Arrows
TTITLE3=M'Bizo
TTITLE4=Race Face
TTITLE5=Prayer
TTITLE6=What Reason Could I Give
TTITLE7=Vienna
TTITLE8=Ahayu-Da
EXTD=YEAR: 1994
EXTT0=
EXTT1=
EXTT2=
EXTT3=
EXTT4=
EXTT5=
EXTT6=
EXTT7=
EXTT8=
PLAYORDER=
